<svg width="145" height="145" viewBox="0 0 145 145" fill="none" xmlns="http://www.w3.org/2000/svg">
<rect width="145" height="145" fill="#009FEE"/>
<path fill-rule="evenodd" clip-rule="evenodd" d="M62 50C65.3137 50 68 47.3137 68 44C68 40.6863 65.3137 38 62 38C58.6863 38 56 40.6863 56 44C56 47.3137 58.6863 50 62 50ZM74 44C74 49.8478 69.817 54.7187 64.28 55.7837C65.954 61.7918 69.3059 67.5531 73.5865 72.2228C78.0275 77.0676 83.2777 80.5357 88.3834 81.9793C89.7227 76.8141 94.4159 73 100 73C106.627 73 112 78.3726 112 85C112 91.6274 106.627 97 100 97C94.4699 97 89.8134 93.2592 88.4231 88.1699C81.3743 86.6528 74.5597 82.1639 69.1635 76.2772C67.2773 74.2195 65.5372 71.9621 64 69.5563V89.3781C69.1757 90.7102 73 95.4085 73 101C73 107.627 67.6274 113 61 113C54.3726 113 49 107.627 49 101C49 95.4085 52.8243 90.7102 58 89.3781V55.4041C57.993 55.3726 57.986 55.3412 57.979 55.3097C53.3292 53.6565 50 49.217 50 44C50 37.3726 55.3726 32 62 32C68.6274 32 74 37.3726 74 44ZM61 107C64.3137 107 67 104.314 67 101C67 97.6863 64.3137 95 61 95C57.6863 95 55 97.6863 55 101C55 104.314 57.6863 107 61 107ZM106 85C106 88.3137 103.314 91 100 91C96.6863 91 94 88.3137 94 85C94 81.6863 96.6863 79 100 79C103.314 79 106 81.6863 106 85Z" fill="white"/>
</svg>
